#N canvas -8 -8 1506 908 10;
#X obj 102 40 inlet~;
#X obj 103 110 +~;
#X obj 103 280 delwrite~ \$1 \$2;
#X obj 273 50 inlet;
#X obj 273 75 delread~ \$1 \$2;
#X obj 293 210 *~;
#X text 273 20 delay time;
#X obj 393 50 inlet;
#X obj 343 140 *~ -1;
#X obj 133 160 *~;
#X obj 173 190 +~;
#X text 133 120 positive coeff;
#X text 303 180 negative coeff;
#X obj 173 240 outlet~;
#X obj 453 212 block~ 1;
#X connect 0 0 1 0;
#X connect 1 0 9 0;
#X connect 1 0 2 0;
#X connect 3 0 4 0;
#X connect 4 0 5 0;
#X connect 4 0 10 1;
#X connect 5 0 1 1;
#X connect 7 0 8 0;
#X connect 7 0 9 1;
#X connect 8 0 5 1;
#X connect 9 0 10 0;
#X connect 10 0 13 0;
