#N canvas 520 296 450 300 10;
#X floatatom 244 142 9 0 0 0 - - -, f 9;
#X obj 194 132 phasor~;
#X obj 200 188 *~;
#X floatatom 164 102 5 0 0 0 - - -, f 5;
#X obj 204 272 /~ 2;
#X msg 204 62 0;
#X obj 142 32 inlet;
#X obj 232 32 inlet;
#X obj 202 302 outlet~;
#X obj 252 72 inlet;
#X obj 244 112 arraysize bells;
#X obj 202 230 tabread~ bells;
#X msg 160 60 0.28;
#X connect 0 0 2 1;
#X connect 1 0 2 0;
#X connect 2 0 11 0;
#X connect 3 0 1 0;
#X connect 4 0 8 0;
#X connect 5 0 3 0;
#X connect 6 0 12 0;
#X connect 7 0 5 0;
#X connect 9 0 10 0;
#X connect 10 0 0 0;
#X connect 11 0 4 0;
#X connect 12 0 3 0;
