#N canvas -8 -8 1506 908 10;
#X floatatom 700 240 9 0 0 0 - - -, f 9;
#X obj 650 230 phasor~;
#X obj 656 286 *~;
#X floatatom 640 190 5 0 0 0 - - -, f 5;
#X obj 660 370 /~ 2;
#X obj 700 210 arraysize cymbal;
#X obj 658 328 tabread~ cymbal;
#X msg 618 146 1;
#X msg 668 146 0;
#X obj 608 116 inlet;
#X obj 678 110 inlet;
#X obj 718 156 inlet;
#X obj 658 396 outlet~;
#X connect 0 0 2 1;
#X connect 1 0 2 0;
#X connect 2 0 6 0;
#X connect 3 0 1 0;
#X connect 4 0 12 0;
#X connect 5 0 0 0;
#X connect 6 0 4 0;
#X connect 7 0 3 0;
#X connect 8 0 3 0;
#X connect 9 0 7 0;
#X connect 10 0 8 0;
#X connect 11 0 5 0;
