#N canvas 754 390 451 300 10;
#X floatatom 237 -70 9 0 0 0 - - -, f 9;
#X obj 187 -80 phasor~;
#X obj 193 -24 *~;
#X floatatom 177 -120 5 0 0 0 - - -, f 5;
#X obj 197 60 /~ 2;
#X msg 205 -164 0;
#X obj 145 -194 inlet;
#X obj 215 -200 inlet;
#X obj 255 -154 inlet;
#X obj 195 86 outlet~;
#X obj 237 -100 arraysize flute;
#X obj 195 18 tabread~ flute;
#X msg 160 -160 0.13;
#X connect 0 0 2 1;
#X connect 1 0 2 0;
#X connect 2 0 11 0;
#X connect 3 0 1 0;
#X connect 4 0 9 0;
#X connect 5 0 3 0;
#X connect 6 0 12 0;
#X connect 7 0 5 0;
#X connect 8 0 10 0;
#X connect 10 0 0 0;
#X connect 11 0 4 0;
#X connect 12 0 3 0;
