#N canvas 520 296 450 300 10;
#X floatatom 230 140 9 0 0 0 - - -, f 9;
#X obj 180 130 phasor~;
#X obj 186 186 *~;
#X floatatom 170 90 5 0 0 0 - - -, f 5;
#X obj 190 270 /~ 2;
#X msg 190 60 0;
#X obj 130 20 inlet;
#X obj 200 20 inlet;
#X obj 190 300 outlet~;
#X obj 240 70 inlet;
#X obj 230 110 arraysize heart;
#X obj 188 228 tabread~ heart;
#X msg 140 60 0.25;
#X connect 0 0 2 1;
#X connect 1 0 2 0;
#X connect 2 0 11 0;
#X connect 3 0 1 0;
#X connect 4 0 8 0;
#X connect 5 0 3 0;
#X connect 6 0 12 0;
#X connect 7 0 5 0;
#X connect 9 0 10 0;
#X connect 10 0 0 0;
#X connect 11 0 4 0;
#X connect 12 0 3 0;
