#N canvas 740 336 452 326 10;
#X floatatom 240 160 9 0 0 0 - - -, f 9;
#X obj 187 146 phasor~;
#X obj 193 202 *~;
#X floatatom 177 106 5 0 0 0 - - -, f 5;
#X obj 197 286 /~ 2;
#X msg 205 62 0;
#X obj 145 32 inlet;
#X obj 215 26 inlet;
#X obj 255 72 inlet;
#X obj 195 312 outlet~;
#X obj 195 244 tabread~ orchestra;
#X msg 250 120 240000;
#X msg 160 66 0.241;
#X connect 0 0 2 1;
#X connect 1 0 2 0;
#X connect 2 0 10 0;
#X connect 3 0 1 0;
#X connect 4 0 9 0;
#X connect 5 0 3 0;
#X connect 6 0 12 0;
#X connect 7 0 5 0;
#X connect 8 0 11 0;
#X connect 10 0 4 0;
#X connect 11 0 0 0;
#X connect 12 0 3 0;
