#N canvas -8 -8 1506 908 10;
#X floatatom 580 220 9 0 0 0 - - -, f 9;
#X obj 530 210 phasor~;
#X obj 536 266 *~;
#X floatatom 500 180 5 0 0 0 - - -, f 5;
#X obj 540 350 /~ 2;
#X obj 580 190 arraysize other;
#X obj 538 308 tabread~ other;
#X msg 498 140 1;
#X msg 540 140 0;
#X obj 478 110 inlet;
#X obj 568 110 inlet;
#X obj 538 380 outlet~;
#X obj 588 150 inlet;
#X connect 0 0 2 1;
#X connect 1 0 2 0;
#X connect 2 0 6 0;
#X connect 3 0 1 0;
#X connect 4 0 11 0;
#X connect 5 0 0 0;
#X connect 6 0 4 0;
#X connect 7 0 3 0;
#X connect 8 0 3 0;
#X connect 9 0 7 0;
#X connect 10 0 8 0;
#X connect 12 0 5 0;
